<?xml version="1.0" standalone="no"?>
<!DOCTYPE svg PUBLIC "-//W3C//DTD SVG 20010904//EN"
 "http://www.w3.org/TR/2001/REC-SVG-20010904/DTD/svg10.dtd">
<svg version="1.0" xmlns="http://www.w3.org/2000/svg"
 width="535.000000pt" height="535.000000pt" viewBox="0 0 535.000000 535.000000"
 preserveAspectRatio="xMidYMid meet">
<metadata>
Created by potrace 1.14, written by Peter Selinger 2001-2017
</metadata>
<g transform="translate(0.000000,535.000000) scale(0.100000,-0.100000)"
fill="#000000" stroke="none">
<path d="M340 3276 l0 -2074 25 -20 c20 -16 135 -117 189 -167 6 -6 54 -48
106 -95 53 -47 131 -116 174 -155 44 -38 88 -78 100 -88 12 -10 35 -31 51 -45
17 -15 73 -65 125 -112 52 -46 100 -89 106 -95 6 -5 42 -38 80 -71 38 -34 83
-75 99 -90 17 -16 66 -60 109 -99 44 -38 86 -77 95 -85 9 -8 33 -29 53 -46
l35 -31 991 0 990 0 39 35 c21 19 76 69 122 111 46 42 107 98 135 125 28 27
109 101 181 165 71 64 136 123 145 131 9 8 58 53 109 100 52 47 104 94 115
105 12 11 42 38 66 59 55 48 210 188 261 236 21 19 65 59 98 89 l61 53 0 2069
0 2069 -2330 0 -2330 0 0 -2074z"/>
</g>
</svg>
